<?xml version="1.0" encoding="UTF-8"?>
<svg width="660px" height="297px" viewBox="0 0 660 297" version="1.1" xmlns="http://www.w3.org/2000/svg" xmlns:xlink="http://www.w3.org/1999/xlink">
    <!-- Generator: Sketch 43.2 (39069) - http://www.bohemiancoding.com/sketch -->
    <title>landschap</title>
    <desc>Created with Sketch.</desc>
    <defs>
        <rect id="path-1" x="0" y="0" width="660" height="319"></rect>
    </defs>
    <g id="Page-1" stroke="none" stroke-width="1" fill="none" fill-rule="evenodd">
        <g id="Desktop-HD" transform="translate(-721.000000, -1332.000000)">
            <g id="landschap" transform="translate(721.000000, 1323.000000)">
                <mask id="mask-2" fill="white">
                    <use xlink:href="#path-1"></use>
                </mask>
                <g id="Mask"></g>
                <g mask="url(#mask-2)">
                    <g transform="translate(0.000000, 13.671429)">
                        <rect id="Rectangle-path" stroke="#000000" stroke-width="2" fill="#FFFFFF" fill-rule="nonzero" x="457.219034" y="36.9909151" width="38.2353623" height="170.993024"></rect>
                        <rect id="Rectangle-path" stroke="#000000" stroke-width="2" fill="#A2A7D1" fill-rule="nonzero" x="442.557354" y="36.9909151" width="14.6616803" height="170.993024"></rect>
                        <rect id="Rectangle-path" stroke="#000000" stroke-width="2" fill="#804F6A" fill-rule="nonzero" x="377.15476" y="65.345819" width="7.61832406" height="98.8823296"></rect>
                        <polygon id="Shape" stroke="#000000" stroke-width="2" fill="#6C4F6A" fill-rule="nonzero" points="377.15476 65.345819 381.035793 33.3925771 384.773084 65.345819"></polygon>
                        <rect id="Rectangle-path" stroke="#000000" stroke-width="2" fill="#804F6A" fill-rule="nonzero" x="367.380307" y="88.2312489" width="27.310973" height="7.91634371"></rect>
                        <rect id="Rectangle-path" stroke="#000000" stroke-width="2" fill="#804F6A" fill-rule="nonzero" x="367.380307" y="126.805433" width="27.310973" height="7.91634371"></rect>
                        <path d="M363.643016,153.001334 L363.643016,216.476017 C363.643016,216.476017 388.366633,224.104494 397.709861,230.293635 L397.709861,152.137733 L363.643016,153.001334 Z" id="Shape" stroke="#000000" stroke-width="2" fill="#428BBF" fill-rule="nonzero"></path>
                        <rect id="Rectangle-path" stroke="#000000" stroke-width="2" fill="#D16184" fill-rule="nonzero" x="253.967898" y="144.65319" width="84.8077584" height="21.7339618"></rect>
                        <path d="M270.210739,169.409755 C270.210739,169.409755 314.339522,131.411306 369.248952,167.826487 L270.210739,169.409755 Z" id="Shape" stroke="#000000" stroke-width="2" fill="#D16184" fill-rule="nonzero"></path>
                        <polygon id="Shape" stroke="#000000" stroke-width="2" fill="#428BBF" fill-rule="nonzero" points="195.752402 201.07513 195.752402 166.531085 270.210739 166.531085 270.210739 201.219064"></polygon>
                        <path d="M270.210739,169.409755 L270.210739,201.362997 C292.92197,203.665934 313.47707,203.809867 314.19578,205.393136 L311.608425,169.409755 L270.210739,169.409755 Z" id="Shape" stroke="#000000" stroke-width="2" fill="#428BBF" fill-rule="nonzero"></path>
                        <rect id="Rectangle-path" stroke="#000000" stroke-width="2" fill="#804F6A" fill-rule="nonzero" x="206.53305" y="67.6487553" width="7.61832406" height="98.8823296"></rect>
                        <polygon id="Shape" stroke="#000000" stroke-width="2" fill="#6C4F6A" fill-rule="nonzero" points="206.53305 67.6487553 210.414083 35.6955134 214.151374 67.6487553"></polygon>
                        <rect id="Rectangle-path" stroke="#000000" stroke-width="2" fill="#804F6A" fill-rule="nonzero" x="196.758596" y="94.8521909" width="27.310973" height="7.91634371"></rect>
                        <rect id="Rectangle-path" stroke="#000000" stroke-width="2" fill="#804F6A" fill-rule="nonzero" x="196.758596" y="131.98704" width="27.310973" height="7.91634371"></rect>
                        <rect id="Rectangle-path" stroke="#000000" stroke-width="2" fill="#804F6A" fill-rule="nonzero" x="236.431378" y="36.2712475" width="7.61832406" height="129.97197"></rect>
                        <polygon id="Shape" stroke="#000000" stroke-width="2" fill="#6C4F6A" fill-rule="nonzero" points="236.431378 36.2712475 240.312411 4.31800566 244.049702 36.2712475"></polygon>
                        <rect id="Rectangle-path" stroke="#000000" stroke-width="2" fill="#804F6A" fill-rule="nonzero" x="226.656925" y="68.2244894" width="27.310973" height="7.91634371"></rect>
                        <rect id="Rectangle-path" stroke="#000000" stroke-width="2" fill="#804F6A" fill-rule="nonzero" x="226.656925" y="107.230474" width="27.310973" height="7.91634371"></rect>
                        <rect id="Rectangle-path" stroke="#000000" stroke-width="2" fill="#804F6A" fill-rule="nonzero" x="346.106496" y="36.2712475" width="7.61832406" height="129.97197"></rect>
                        <polygon id="Shape" stroke="#000000" stroke-width="2" fill="#6C4F6A" fill-rule="nonzero" points="346.106496 36.2712475 349.987529 4.31800566 353.72482 36.2712475"></polygon>
                        <rect id="Rectangle-path" stroke="#000000" stroke-width="2" fill="#804F6A" fill-rule="nonzero" x="336.332043" y="65.345819" width="27.310973" height="7.91634371"></rect>
                        <rect id="Rectangle-path" stroke="#000000" stroke-width="2" fill="#804F6A" fill-rule="nonzero" x="336.332043" y="104.351803" width="27.310973" height="7.91634371"></rect>
                        <path d="M314.19578,205.393136 L311.752167,166.531085 L372.698759,166.531085 L372.698759,199.779728 C372.698759,199.779728 377.011018,202.514465 372.698759,205.393136 L372.698759,219.498621 C372.698759,219.354687 343.519141,208.703607 314.19578,205.393136 Z" id="Shape" stroke="#000000" stroke-width="2" fill="#FFFFFF" fill-rule="nonzero"></path>
                        <polygon id="Shape" stroke="#000000" stroke-width="2" fill="#D16184" fill-rule="nonzero" points="311.752167 166.531085 343.231657 153.001334 372.698759 166.531085"></polygon>
                        <rect id="Rectangle-path" stroke="#000000" stroke-width="2" fill="#D16184" fill-rule="nonzero" x="258.423898" y="138.607982" width="76.6144665" height="6.04520792"></rect>
                        <path d="M264.317319,138.607982 C264.317319,138.607982 265.323513,114.283216 296.371777,113.419615 C327.420041,112.556014 330.007396,138.607982 330.007396,138.607982 L264.317319,138.607982 Z" id="Shape" stroke="#000000" stroke-width="2" fill="#428BBF" fill-rule="nonzero"></path>
                        <polygon id="Shape" stroke="#000000" stroke-width="2" fill="#804F6A" fill-rule="nonzero" points="292.20326 113.707482 292.20326 105.503272 300.827778 105.503272 300.827778 113.419615"></polygon>
                        <path d="M296.803003,105.503272 L296.803003,79.0195035" id="Shape" stroke="#000000" stroke-width="2" fill="none"></path>
                        <path d="M372.698759,199.779728 L314.19578,199.779728" id="Shape" stroke="#000000" stroke-width="2" fill="none"></path>
                        <path d="M321.239136,199.779728 C321.239136,199.779728 318.795523,183.947041 327.276299,183.659174 C335.757075,183.371307 334.750881,199.779728 334.750881,199.779728 L321.239136,199.779728 Z" id="Shape" stroke="#000000" stroke-width="2" fill="#804F6A" fill-rule="nonzero"></path>
                        <path d="M338.056946,199.779728 C338.056946,199.779728 335.613333,183.947041 344.094109,183.659174 C352.574884,183.371307 351.568691,199.779728 351.568691,199.779728 L338.056946,199.779728 Z" id="Shape" stroke="#000000" stroke-width="2" fill="#828BBF" fill-rule="nonzero"></path>
                        <path d="M355.16224,199.779728 C355.16224,199.779728 352.718626,183.947041 361.199402,183.659174 C369.680178,183.371307 368.673984,199.779728 368.673984,199.779728 L355.16224,199.779728 Z" id="Shape" stroke="#000000" stroke-width="2" fill="#A45A7F" fill-rule="nonzero"></path>
                        <polyline id="Shape" stroke="#000000" stroke-width="2" fill="#7A70A9" fill-rule="nonzero" points="363.643016 153.001334 360.624434 153.001334 360.624434 145.948591 397.566119 145.948591 397.566119 151.993799 360.624434 153.001334"></polyline>
                        <rect id="Rectangle-path" stroke="#000000" stroke-width="2" fill="#A87FA7" fill-rule="nonzero" x="397.566119" y="145.948591" width="48.5847836" height="6.04520792"></rect>
                        <path d="M435.370255,245.694522 L433.645352,207.983939 L464.549874,207.983939 L465.412326,255.625935 C465.412326,255.625935 443.276063,248.717126 435.370255,245.694522 Z" id="Shape" stroke="#000000" stroke-width="2" fill="#428BBF" fill-rule="nonzero"></path>
                        <path d="M464.406132,207.983939 L512.847174,207.983939 L512.847174,268.867819 C512.847174,268.867819 475.330521,258.792472 465.268584,255.625935 L464.406132,207.983939 Z" id="Shape" stroke="#000000" stroke-width="2" fill="#FFFFFF" fill-rule="nonzero"></path>
                        <path d="M464.406132,207.983939 L488.698524,196.901058 L512.272206,207.696072 C512.415948,207.696072 512.415948,207.983939 512.272206,207.983939 L464.406132,207.983939 Z" id="Shape" stroke="#000000" stroke-width="2" fill="#A45A7F" fill-rule="nonzero"></path>
                        <path d="M464.406132,207.983939 L433.50161,207.983939 L487.836072,197.044992 C487.979814,197.044992 487.979814,197.188925 487.836072,197.188925 L464.406132,207.983939 Z" id="Shape" stroke="#000000" stroke-width="2" fill="#A45A7F" fill-rule="nonzero"></path>
                        <path d="M509.828592,231.876904 L469.437101,231.876904" id="Shape" stroke="#000000" stroke-width="2" fill="none"></path>
                        <path d="M472.455682,231.876904 C472.455682,231.876904 471.162004,220.937956 477.055425,220.937956 C482.948845,220.937956 481.942652,231.876904 481.942652,231.876904 L472.455682,231.876904 Z" id="Shape" stroke="#000000" stroke-width="2" fill="#804F6A" fill-rule="nonzero"></path>
                        <path d="M485.104975,231.876904 C485.104975,231.876904 483.811297,220.937956 489.704718,220.937956 C495.598138,220.937956 494.591944,231.876904 494.591944,231.876904 L485.104975,231.876904 Z" id="Shape" stroke="#000000" stroke-width="2" fill="#A45A7F" fill-rule="nonzero"></path>
                        <path d="M497.754267,231.876904 C497.754267,231.876904 496.46059,220.937956 502.35401,220.937956 C508.247431,220.937956 507.241237,231.876904 507.241237,231.876904 L497.754267,231.876904 Z" id="Shape" stroke="#000000" stroke-width="2" fill="#828BBF" fill-rule="nonzero"></path>
                        <path d="M509.972334,255.338068 L469.580843,255.338068" id="Shape" stroke="#000000" stroke-width="2" fill="none"></path>
                        <path d="M472.599424,255.338068 C472.599424,255.338068 471.305746,244.39912 477.199167,244.39912 C483.092587,244.39912 482.086393,255.338068 482.086393,255.338068 L472.599424,255.338068 Z" id="Shape" stroke="#000000" stroke-width="2" fill="#828BBF" fill-rule="nonzero"></path>
                        <path d="M485.104975,255.338068 C485.104975,255.338068 483.811297,244.39912 489.704718,244.39912 C495.598138,244.39912 494.591944,255.338068 494.591944,255.338068 L485.104975,255.338068 Z" id="Shape" stroke="#000000" stroke-width="2" fill="#804F6A" fill-rule="nonzero"></path>
                        <path d="M497.754267,255.338068 C497.754267,255.338068 496.46059,244.39912 502.35401,244.39912 C508.391173,244.39912 507.241237,255.338068 507.241237,255.338068 L497.754267,255.338068 Z" id="Shape" stroke="#000000" stroke-width="2" fill="#A45A7F" fill-rule="nonzero"></path>
                        <rect id="Rectangle-path" stroke="#000000" stroke-width="2" fill="#A2A7D1" fill-rule="nonzero" x="420.133607" y="69.3759576" width="10.0619374" height="76.5726337"></rect>
                        <rect id="Rectangle-path" stroke="#000000" stroke-width="2" fill="#A2A7D1" fill-rule="nonzero" x="430.195545" y="52.5357355" width="12.2180669" height="93.4128557"></rect>
                        <rect id="Rectangle-path" stroke="#000000" stroke-width="2" fill="#FFFFFF" fill-rule="nonzero" x="451.756839" y="15.6887539" width="35.0730391" height="21.3021612"></rect>
                        <polygon id="Shape" stroke="#000000" stroke-width="2" fill="#A2A7D1" fill-rule="nonzero" points="451.756839 15.6887539 422.433479 15.6887539 422.433479 69.3759576 430.195545 69.3759576 430.195545 52.5357355 442.413612 52.5357355 442.557354 36.9909151 451.756839 36.9909151"></polygon>
                        <path d="M433.070384,0.575734088 L433.070384,15.6887539" id="Shape" stroke="#000000" stroke-width="2" fill="none"></path>
                        <path d="M442.557354,7.1966761 L442.557354,15.6887539" id="Shape" stroke="#000000" stroke-width="2" fill="none"></path>
                        <path d="M495.310654,52.5357355 L469.293359,52.5357355" id="Shape" stroke="#000000" stroke-width="2" fill="none"></path>
                        <rect id="Rectangle-path" stroke="#000000" stroke-width="2" fill="#A45A7F" fill-rule="nonzero" x="468.718391" y="45.9147935" width="18.6864552" height="6.62094201"></rect>
                        <path d="M495.598138,71.6788939 L469.580843,71.6788939" id="Shape" stroke="#000000" stroke-width="2" fill="none"></path>
                        <rect id="Rectangle-path" stroke="#000000" stroke-width="2" fill="#828BBF" fill-rule="nonzero" x="469.005875" y="65.0579519" width="18.6864552" height="6.62094201"></rect>
                        <path d="M495.598138,89.6705842 L469.580843,89.6705842" id="Shape" stroke="#000000" stroke-width="2" fill="none"></path>
                        <rect id="Rectangle-path" stroke="#000000" stroke-width="2" fill="#804F6A" fill-rule="nonzero" x="469.005875" y="83.0496421" width="18.6864552" height="6.62094201"></rect>
                        <path d="M495.598138,123.494962 L469.580843,123.494962" id="Shape" stroke="#000000" stroke-width="2" fill="none"></path>
                        <rect id="Rectangle-path" stroke="#000000" stroke-width="2" fill="#828BBF" fill-rule="nonzero" x="469.005875" y="117.017953" width="18.6864552" height="6.62094201"></rect>
                        <path d="M495.598138,140.047317 L469.580843,140.047317" id="Shape" stroke="#000000" stroke-width="2" fill="none"></path>
                        <rect id="Rectangle-path" stroke="#000000" stroke-width="2" fill="#828BBF" fill-rule="nonzero" x="469.005875" y="133.426375" width="18.6864552" height="6.62094201"></rect>
                        <path d="M495.310654,157.895074 L469.293359,157.895074" id="Shape" stroke="#000000" stroke-width="2" fill="none"></path>
                        <rect id="Rectangle-path" stroke="#000000" stroke-width="2" fill="#A45A7F" fill-rule="nonzero" x="468.718391" y="151.274132" width="18.6864552" height="6.62094201"></rect>
                        <path d="M495.598138,177.7579 L469.580843,177.7579" id="Shape" stroke="#000000" stroke-width="2" fill="none"></path>
                        <rect id="Rectangle-path" stroke="#000000" stroke-width="2" fill="#828BBF" fill-rule="nonzero" x="469.005875" y="171.280891" width="18.6864552" height="6.62094201"></rect>
                        <path d="M495.885622,194.022388 L469.868327,194.022388" id="Shape" stroke="#000000" stroke-width="2" fill="none"></path>
                        <rect id="Rectangle-path" stroke="#000000" stroke-width="2" fill="#A45A7F" fill-rule="nonzero" x="469.293359" y="187.545379" width="18.6864552" height="6.62094201"></rect>
                        <path d="M495.598138,106.510806 L469.580843,106.510806" id="Shape" stroke="#000000" stroke-width="2" fill="none"></path>
                        <rect id="Rectangle-path" stroke="#000000" stroke-width="2" fill="#A45A7F" fill-rule="nonzero" x="469.005875" y="100.033798" width="18.6864552" height="6.62094201"></rect>
                        <path d="M531.533629,23.0293635 L531.533629,273.185825 C531.533629,273.185825 577.243573,282.685437 594.923835,285.851975 L594.923835,20.4385601 L531.533629,23.0293635 Z" id="Shape" stroke="#000000" stroke-width="2" fill="#8F7FB0" fill-rule="nonzero"></path>
                        <path d="M582.993252,21.0142942 L582.993252,284.412639" id="Shape" stroke="#000000" stroke-width="2" fill="none"></path>
                        <polygon id="Shape" stroke="#000000" stroke-width="2" fill="#FFFFFF" fill-rule="nonzero" points="552.519956 277.50383 552.519956 200.211529 576.093638 200.211529 576.093638 282.253636"></polygon>
                        <polyline id="Shape" stroke="#000000" stroke-width="2" fill="none" points="543.607954 275.776628 543.607954 199.779728 552.519956 200.211529"></polyline>
                        <rect id="Rectangle-path" stroke="#000000" stroke-width="2" fill="#FFFFFF" fill-rule="nonzero" x="549.501374" y="106.510806" width="25.0111016" height="57.5734088"></rect>
                        <polyline id="Shape" stroke="#000000" stroke-width="2" fill="none" points="549.501374 106.510806 541.739308 106.510806 541.739308 164.228149 549.501374 164.228149"></polyline>
                        <rect id="Rectangle-path" stroke="#000000" stroke-width="2" fill="#FFFFFF" fill-rule="nonzero" x="549.501374" y="34.5440453" width="25.0111016" height="57.5734088"></rect>
                        <polyline id="Shape" stroke="#000000" stroke-width="2" fill="none" points="549.501374 34.5440453 541.739308 34.5440453 541.739308 92.2613876 549.501374 92.2613876"></polyline>
                        <path d="M562.006925,106.510806 L562.006925,164.228149" id="Shape" stroke="#000000" stroke-width="2" fill="none"></path>
                        <path d="M442.557354,174.447429 C442.557354,174.447429 472.455682,163.508481 501.779042,139.903383 C505.516334,136.880779 508.966141,133.570308 512.272206,129.97197 C527.652596,113.419615 574.224992,60.5960127 580.262154,20.8703607" id="Shape" stroke="#000000" stroke-width="2" fill="none"></path>
                        <path d="M433.070384,145.948591 C433.070384,145.948591 505.516334,90.9659859 536.852082,22.88543" id="Shape" stroke="#000000" stroke-width="2" fill="none"></path>
                        <path d="M562.006925,92.2613876 L562.006925,66.4972871" id="Shape" stroke="#000000" stroke-width="2" fill="none"></path>
                        <rect id="Rectangle-path" stroke="#000000" stroke-width="2" fill="#E0C5DE" fill-rule="nonzero" x="442.557354" y="177.7579" width="316.088578" height="9.64354597"></rect>
                        <path d="M549.501374,49.2252645 C549.501374,49.2252645 566.175442,75.7090325 574.512476,79.3073706" id="Shape" stroke="#000000" stroke-width="2" fill="none"></path>
                        <path d="M594.923835,52.5357355 C594.923835,52.5357355 647.677135,140.766984 758.502189,157.895074" id="Shape" stroke="#000000" stroke-width="2" fill="none"></path>
                        <path d="M594.923835,100.033798 C594.923835,100.033798 666.651074,175.598897 758.502189,153.145267 L758.502189,177.7579" id="Shape" stroke="#000000" stroke-width="2" fill="none"></path>
                        <path d="M605.273256,109.53341 L605.273256,177.7579" id="Shape" stroke="#000000" stroke-width="2" fill="none"></path>
                        <path d="M625.397131,89.6705842 L625.397131,177.7579" id="Shape" stroke="#000000" stroke-width="2" fill="none"></path>
                        <path d="M648.970813,138.464048 L648.970813,177.7579" id="Shape" stroke="#000000" stroke-width="2" fill="none"></path>
                        <path d="M397.566119,151.993799 L442.413612,151.993799 L442.413612,248.285325 C442.413612,248.285325 410.502896,236.482777 397.566119,230.149702 L397.566119,151.993799 Z" id="Shape" stroke="#000000" stroke-width="2" fill="#FFFFFF" fill-rule="nonzero"></path>
                        <rect id="Rectangle-path" stroke="#000000" stroke-width="2" fill="#A45A7F" fill-rule="nonzero" x="405.328185" y="164.228149" width="10.3494214" height="12.2343494"></rect>
                        <rect id="Rectangle-path" stroke="#000000" stroke-width="2" fill="#828BBF" fill-rule="nonzero" x="425.020834" y="164.228149" width="10.3494214" height="12.2343494"></rect>
                        <rect id="Rectangle-path" stroke="#000000" stroke-width="2" fill="#828BBF" fill-rule="nonzero" x="405.040701" y="187.97718" width="10.3494214" height="12.2343494"></rect>
                        <rect id="Rectangle-path" stroke="#000000" stroke-width="2" fill="#804F6A" fill-rule="nonzero" x="424.73335" y="187.97718" width="10.3494214" height="12.2343494"></rect>
                        <rect id="Rectangle-path" stroke="#000000" stroke-width="2" fill="#804F6A" fill-rule="nonzero" x="405.040701" y="212.014078" width="10.3494214" height="12.2343494"></rect>
                        <rect id="Rectangle-path" stroke="#000000" stroke-width="2" fill="#A45A7F" fill-rule="nonzero" x="424.73335" y="212.014078" width="10.3494214" height="12.2343494"></rect>
                        <path d="M620.797388,290.601781 C620.797388,290.601781 468.862133,267.28455 393.397602,228.998233 C360.33695,212.301945 317.933071,204.817402 280.703903,201.650864 L280.703903,201.650864 C280.703903,202.514465 165.997816,183.803107 81.1900576,227.558898 C23.9807561,257.06527 0.119590197,289.162446 0.119590197,289.162446 L193.883757,290.601781 L193.883757,290.601781 L620.797388,290.601781 Z" id="Shape" stroke="#000000" stroke-width="2" fill="#428BBF" fill-rule="nonzero"></path>
                        <path d="M378.017212,237.634245 C379.742116,235.907042 375.861083,231.589037 376.292308,229.2861 C377.298502,223.384826 384.054374,219.786488 389.516569,222.521225 C393.97257,224.680228 394.116312,230.293635 393.828828,232.740505 C393.828828,233.604106 393.97257,234.467707 394.547538,235.043441 C396.847409,237.634245 402.453346,245.118788 399.291023,253.035132 C396.847409,258.936406 390.522763,262.102943 384.341858,261.095409 C376.148566,260.087874 368.530242,247.421724 378.017212,237.634245 Z" id="Shape" stroke="#000000" stroke-width="2" fill="#D16184" fill-rule="nonzero"></path>
                        <path d="M386.929214,272.466157 L385.348052,229.2861" id="Shape" stroke="#000000" stroke-width="2" fill="none"></path>
                        <path d="M386.210504,250.876129 L390.953989,245.550588" id="Shape" stroke="#000000" stroke-width="2" fill="none"></path>
                        <path d="M385.92302,243.823386 L382.473213,239.793248" id="Shape" stroke="#000000" stroke-width="2" fill="none"></path>
                        <g id="Group" stroke="none" stroke-width="1" fill="none" fill-rule="evenodd" transform="translate(310.482641, 193.901933)">
                            <path d="M4.28810714,13.6502061 C5.86926873,12.2108708 2.27571965,8.6125328 2.56320358,6.59746349 C3.56939732,1.55979022 10.0377857,-1.31888022 15.3562383,0.984056136 C19.6684972,2.85519192 19.8122392,7.46106462 19.5247553,9.62006745 C19.5247553,10.3397351 19.6684972,11.0594027 20.2434651,11.6351368 C22.5433365,13.7941396 27.8617891,20.1272146 24.8432079,26.8920901 C22.5433365,31.7858298 16.506174,34.5205667 10.4690116,33.8008991 C2.56320358,32.649431 -4.91137852,21.8544168 4.28810714,13.6502061 Z" id="Shape" stroke="#000000" stroke-width="2" fill="#D1C5D4" fill-rule="nonzero"></path>
                            <path d="M12.9126249,43.1565781 L11.3314633,6.59746349" id="Shape" stroke="#000000" stroke-width="2"></path>
                            <path d="M12.0501732,24.8770208 L16.793658,20.2711481" id="Shape" stroke="#000000" stroke-width="2"></path>
                            <path d="M11.9064312,18.8318129 L8.60036604,15.5213418" id="Shape" stroke="#000000" stroke-width="2"></path>
                        </g>
                        <g id="Group" stroke="none" stroke-width="1" fill="none" fill-rule="evenodd" transform="translate(136.554865, 197.188925)">
                            <path d="M4.28810714,13.5297511 C5.86926873,12.0904158 2.27571965,8.49207779 2.56320358,6.47700849 C3.56939732,1.43933522 10.0377857,-1.43933522 15.3562383,0.863601132 C19.6684972,2.73473692 19.8122392,7.34060962 19.5247553,9.49961245 C19.5247553,10.2192801 19.6684972,10.9389477 20.2434651,11.5146818 C22.5433365,13.6736846 27.8617891,20.0067595 24.8432079,26.7716351 C22.5433365,31.6653748 16.506174,34.4001117 10.4690116,33.6804441 C2.56320358,32.528976 -4.91137852,21.8778953 4.28810714,13.5297511 Z" id="Shape" stroke="#000000" stroke-width="2" fill="#D1C5D4" fill-rule="nonzero"></path>
                            <path d="M12.9126249,43.0361231 L11.3314633,6.62094201" id="Shape" stroke="#000000" stroke-width="2"></path>
                            <path d="M12.1939151,24.7565658 L16.793658,20.2946266" id="Shape" stroke="#000000" stroke-width="2"></path>
                            <path d="M11.9064312,18.8552914 L8.60036604,15.4008868" id="Shape" stroke="#000000" stroke-width="2"></path>
                        </g>
                        <g id="Group" stroke="none" stroke-width="1" fill="none" fill-rule="evenodd" transform="translate(187.271627, 233.172306)">
                            <path d="M4.45600087,14.1054851 C6.03716246,12.6661499 2.44361338,9.06781188 2.7310973,7.05274257 C3.73729105,2.01506931 10.2056794,-0.863601132 15.524132,1.43933522 C19.8363909,3.310471 19.9801329,7.91634371 19.692649,10.0753465 C19.692649,10.7950141 19.8363909,11.5146818 20.4113588,12.0904158 C22.7112302,14.2494187 28.0296829,20.5824936 25.0111016,27.3473692 C22.7112302,32.2411089 16.6740678,34.9758458 10.6369053,34.2561782 C2.7310973,33.10471 -4.74348479,22.4536294 4.45600087,14.1054851 Z" id="Shape" stroke="#000000" stroke-width="2" fill="#D1C5D4" fill-rule="nonzero"></path>
                            <path d="M13.0805187,43.6118571 L11.4993571,7.1966761" id="Shape" stroke="#000000" stroke-width="2"></path>
                            <path d="M12.3618089,25.3322999 L16.9615517,20.8703607" id="Shape" stroke="#000000" stroke-width="2"></path>
                            <path d="M12.0743249,19.4310255 L8.76825977,15.9766209" id="Shape" stroke="#000000" stroke-width="2"></path>
                        </g>
                        <g id="Group" stroke="none" stroke-width="1" fill="none" fill-rule="evenodd" transform="translate(274.954224, 246.126322)">
                            <path d="M3.88103301,11.8025488 C5.31845265,10.6510806 2.15612945,7.62847666 2.44361338,6.04520792 C3.30606516,1.87113579 8.91200173,-0.575734088 13.3680026,1.43933522 C17.1052936,3.02260396 17.1052936,6.76487553 16.9615517,8.63601132 C16.9615517,9.2117454 17.1052936,9.78747949 17.5365195,10.2192801 C19.4051651,12.0904158 24.1486499,17.2720226 21.4175525,22.7414965 C19.4051651,26.7716351 14.2304544,29.0745714 9.05574369,28.3549038 C2.44361338,27.3473692 -4.02477498,18.5674243 3.88103301,11.8025488 Z" id="Shape" stroke="#000000" stroke-width="2" fill="#D16184" fill-rule="nonzero"></path>
                            <path d="M11.3556151,35.9833805 L9.91819547,6.04520792" id="Shape" stroke="#000000" stroke-width="2"></path>
                            <path d="M10.6369053,21.0142942 L14.6616803,17.2720226" id="Shape" stroke="#000000" stroke-width="2"></path>
                            <path d="M10.3494214,15.9766209 L7.61832406,13.241884" id="Shape" stroke="#000000" stroke-width="2"></path>
                        </g>
                        <g id="Group" stroke="none" stroke-width="1" fill="none" fill-rule="evenodd" transform="translate(217.050365, 192.870919)">
                            <path d="M4.71933303,14.6812192 C6.44423659,13.0979505 2.56320358,9.35567893 2.8506875,7.34060962 C3.85688125,2.01506931 10.9002375,-1.00753465 16.3624321,1.43933522 C20.9621749,3.45440453 21.1059169,8.20421075 20.8184329,10.5071471 C20.8184329,11.2268147 20.9621749,12.0904158 21.6808847,12.6661499 C24.1244981,14.9690863 29.7304347,21.5900283 26.5681115,28.6427709 C24.1244981,33.8243777 17.6561097,36.7030481 11.1877214,35.839447 C2.8506875,34.6879788 -5.05512049,23.4611641 4.71933303,14.6812192 Z" id="Shape" stroke="#000000" stroke-width="2" fill="#D16184" fill-rule="nonzero"></path>
                            <path d="M13.9188187,45.6269264 L12.1939151,7.48454314" id="Shape" stroke="#000000" stroke-width="2"></path>
                            <path d="M13.0563669,26.483768 L17.9435937,21.7339618" id="Shape" stroke="#000000" stroke-width="2"></path>
                            <path d="M12.768883,20.1506931 L9.31907585,16.6962885" id="Shape" stroke="#000000" stroke-width="2"></path>
                        </g>
                        <g id="Group" stroke="none" stroke-width="1" fill="none" fill-rule="evenodd" transform="translate(62.216118, 228.854300)">
                            <path d="M4.59974283,12.5222164 C6.03716246,11.2268147 2.7310973,7.91634371 3.01858123,6.18914144 C3.88103301,1.58326874 9.91819547,-1.00753465 14.6616803,1.00753465 C18.5427133,2.73473692 18.6864552,6.90880905 18.5427133,8.92387836 C18.5427133,9.64354597 18.6864552,10.2192801 19.2614231,10.7950141 C21.2738106,12.8100835 26.3047793,18.5674243 23.42994,24.6126322 C21.2738106,29.0745714 15.667874,31.5214413 10.2056794,30.8017737 C3.01858123,29.6503055 -3.88103301,20.0067595 4.59974283,12.5222164 Z" id="Shape" stroke="#000000" stroke-width="2" fill="#D16184" fill-rule="nonzero"></path>
                            <path d="M12.5055508,39.149918 L11.0681312,6.18914144" id="Shape" stroke="#000000" stroke-width="2"></path>
                            <path d="M11.786841,22.7414965 L15.9553579,18.5674243" id="Shape" stroke="#000000" stroke-width="2"></path>
                            <path d="M11.4993571,17.2720226 L8.48077584,14.1054851" id="Shape" stroke="#000000" stroke-width="2"></path>
                        </g>
                        <path d="M436.663933,248.285325 C438.245095,246.702057 434.651546,242.671918 435.082771,240.512915 C436.088965,235.043441 442.26987,231.73297 447.300838,234.323774 C451.469355,236.338843 451.469355,241.52045 451.325613,243.823386 C451.325613,244.686987 451.469355,245.406655 452.044323,245.982389 C454.200453,248.429259 459.375163,255.338068 456.356582,262.678678 C454.200453,268.148151 448.307032,271.026822 442.557354,270.163221 C434.939029,269.155686 427.895673,257.353137 436.663933,248.285325 Z" id="Shape" stroke="#000000" stroke-width="2" fill="#D1C5D4" fill-rule="nonzero"></path>
                        <path d="M445.000967,280.670368 L443.419805,240.656849" id="Shape" stroke="#000000" stroke-width="2" fill="none"></path>
                        <path d="M444.138515,260.663608 L448.594516,255.625935" id="Shape" stroke="#000000" stroke-width="2" fill="none"></path>
                        <path d="M443.994773,254.042666 L440.83245,250.300395" id="Shape" stroke="#000000" stroke-width="2" fill="none"></path>
                        <path d="M506.522527,255.625935 C507.959947,254.474467 504.797624,251.451863 505.085108,249.868594 C505.947559,245.694522 511.553496,243.247652 516.009497,245.262721 C519.746788,246.84599 519.746788,250.588262 519.603046,252.459397 C519.603046,253.035132 519.746788,253.610866 520.178014,254.042666 C522.046659,255.913802 526.790144,261.095409 524.059047,266.564883 C522.046659,270.595021 516.871949,272.897958 511.697238,272.17829 C505.085108,271.170755 498.760461,262.39081 506.522527,255.625935 Z" id="Shape" stroke="#000000" stroke-width="2" fill="#D16184" fill-rule="nonzero"></path>
                        <path d="M513.997109,279.806767 L512.55969,249.868594" id="Shape" stroke="#000000" stroke-width="2" fill="none"></path>
                        <path d="M513.2784,264.83768 L517.303175,261.095409" id="Shape" stroke="#000000" stroke-width="2" fill="none"></path>
                        <path d="M513.134658,259.943941 L510.259818,257.06527" id="Shape" stroke="#000000" stroke-width="2" fill="none"></path>
                    </g>
                </g>
            </g>
        </g>
    </g>
</svg>